<?xml version="1.0" encoding="UTF-8" standalone="no"?>
<!DOCTYPE svg PUBLIC "-//W3C//DTD SVG 1.1//EN" "http://www.w3.org/Graphics/SVG/1.1/DTD/svg11.dtd">
<svg width="50%" height="50%" viewBox="0 0 528 272" version="1.1" xmlns="http://www.w3.org/2000/svg" xmlns:xlink="http://www.w3.org/1999/xlink" xml:space="preserve" xmlns:serif="http://www.serif.com/" style="fill-rule:evenodd;clip-rule:evenodd;stroke-linejoin:round;stroke-miterlimit:2;">
    <g>
        <path d="M528,132L0,132L0,237.314C0,256.458 15.542,272 34.686,272L493.257,272C512.432,272 528,256.432 528,237.257L528,132Z" style="fill:white;"/>
        <path d="M528,132L0,132L0,237.314C0,256.458 15.542,272 34.686,272L493.257,272C512.432,272 528,256.432 528,237.257L528,132ZM522,138L6,138L6,237.314C6,253.146 18.854,266 34.686,266L493.257,266C509.121,266 522,253.121 522,237.257L522,138Z" style="fill:rgb(45,54,62);"/>
        <path d="M528,34C528,15.235 512.765,0 494,0L34,0C15.235,0 0,15.235 0,34L0,136L528,136L528,34Z" style="fill:rgb(45,54,62);"/>
        <g id="OpenJDK">
            <g id="JDK">
                <path id="K" d="M411.562,191.956L439.264,154.295L452.313,154.295L424.154,191.727L453,234.08L438.92,234.08L411.562,191.956ZM399.314,154.295L410.875,154.295L410.875,234.08L399.314,234.08L399.314,154.295Z" style="fill:rgb(45,54,62);fill-rule:nonzero;stroke:rgb(45,54,62);stroke-width:1px;"/>
                <path id="D" d="M349.357,223.43C353.478,223.43 357.008,222.953 359.946,221.999C362.884,221.046 365.326,219.386 367.272,217.02C369.218,214.654 370.649,211.545 371.564,207.691C372.48,203.837 372.938,198.972 372.938,193.096C372.938,187.067 372.518,182.088 371.679,178.158C370.839,174.228 369.466,171.137 367.558,168.886C365.65,166.635 363.189,165.07 360.175,164.193C357.16,163.315 353.478,162.876 349.128,162.876L341.573,162.876L341.573,223.43L349.357,223.43ZM330.012,153.261L348.556,153.261C354.966,153.261 360.48,154.005 365.097,155.493C369.714,156.981 373.51,159.309 376.486,162.476C379.463,165.643 381.676,169.706 383.126,174.667C384.576,179.627 385.301,185.617 385.301,192.638C385.301,206.527 382.267,216.734 376.2,223.259C370.133,229.783 361.377,233.046 349.93,233.046L330.012,233.046L330.012,153.261Z" style="fill:rgb(45,54,62);fill-rule:nonzero;stroke:rgb(45,54,62);stroke-width:1px;"/>
                <path id="J" d="M289.603,242.318C291.816,241.326 293.686,240.257 295.212,239.113C296.738,237.968 297.978,236.556 298.932,234.877C299.886,233.198 300.573,231.119 300.993,228.639C301.413,226.159 301.622,223.049 301.622,219.309L301.622,153.261L313.298,153.261L313.298,221.141C313.298,225.872 312.821,229.86 311.867,233.103C310.913,236.346 309.578,239.036 307.861,241.173C306.144,243.31 304.103,245.046 301.737,246.381C299.371,247.717 296.738,248.881 293.838,249.873L289.603,242.318Z" style="fill:rgb(45,54,62);fill-rule:nonzero;stroke:rgb(45,54,62);stroke-width:1px;"/>
            </g>
            <g id="Open">
                <path id="n" d="M243.478,174.323L252.406,172.95C252.635,173.636 252.845,174.552 253.036,175.697C253.227,176.841 253.36,178.33 253.436,180.161C255.421,177.948 257.691,176.136 260.247,174.724C262.804,173.312 265.723,172.606 269.004,172.606C273.583,172.606 277.112,173.923 279.593,176.555C282.073,179.188 283.313,182.946 283.313,187.831L283.313,233.046L272.667,233.046L272.667,190.807C272.667,187.144 272.076,184.644 270.893,183.309C269.71,181.974 267.898,181.306 265.456,181.306C263.472,181.306 261.468,181.802 259.446,182.794C257.424,183.786 255.65,185.16 254.123,186.915L254.123,233.046L243.478,233.046L243.478,174.323Z" style="fill:rgb(45,54,62);fill-rule:nonzero;stroke:rgb(45,54,62);stroke-width:1px;"/>
                <path id="e" d="M221.64,199.163C221.64,195.5 221.469,192.447 221.125,190.005C220.782,187.563 220.209,185.637 219.408,184.225C218.607,182.813 217.596,181.802 216.375,181.191C215.154,180.581 213.704,180.276 212.025,180.276C208.82,180.276 206.301,181.706 204.47,184.568C202.638,187.43 201.608,192.295 201.379,199.163L221.64,199.163ZM213.742,234.419C205.958,234.419 200.139,231.768 196.285,226.464C192.432,221.16 190.505,213.548 190.505,203.627C190.505,193.707 192.413,186.056 196.228,180.676C200.044,175.296 205.386,172.606 212.254,172.606C218.969,172.606 223.987,174.953 227.306,179.646C230.626,184.339 232.286,191.913 232.286,202.368L232.286,206.374L201.379,206.374C201.532,213.624 202.677,218.737 204.813,221.713C206.95,224.69 210.308,226.178 214.887,226.178C217.558,226.178 219.847,225.662 221.755,224.632C223.663,223.602 225.418,222.4 227.02,221.027L231.485,227.78C229.119,229.841 226.505,231.462 223.643,232.645C220.782,233.828 217.481,234.419 213.742,234.419Z" style="fill:rgb(45,54,62);fill-rule:nonzero;stroke:rgb(45,54,62);stroke-width:1px;"/>
                <path id="p" d="M161.108,226.635C162.94,226.635 164.561,226.311 165.973,225.662C167.385,225.014 168.549,223.85 169.464,222.171C170.38,220.492 171.067,218.184 171.525,215.246C171.983,212.308 172.212,208.549 172.212,203.971C172.212,199.544 172.021,195.862 171.639,192.924C171.258,189.986 170.647,187.64 169.808,185.885C168.968,184.129 167.919,182.908 166.66,182.222C165.401,181.535 163.894,181.191 162.138,181.191C159.925,181.191 157.96,181.668 156.243,182.622C154.526,183.576 153.019,184.931 151.722,186.686L151.722,221.713C152.943,223.24 154.336,224.441 155.9,225.319C157.464,226.197 159.2,226.635 161.108,226.635ZM141.076,174.323L149.89,172.95C150.196,173.636 150.444,174.533 150.634,175.64C150.825,176.746 150.959,178.062 151.035,179.589C152.638,177.681 154.603,176.04 156.93,174.667C159.258,173.293 161.795,172.606 164.542,172.606C171.029,172.606 175.798,175.163 178.851,180.276C181.903,185.388 183.43,193.058 183.43,203.284C183.43,209.084 182.915,213.968 181.884,217.936C180.854,221.904 179.423,225.109 177.592,227.551C175.76,229.993 173.604,231.748 171.124,232.817C168.644,233.885 165.954,234.419 163.054,234.419C160.841,234.419 158.743,233.981 156.758,233.103C154.774,232.225 153.095,231.062 151.722,229.612L151.722,253.536L141.076,254.909L141.076,174.323Z" style="fill:rgb(45,54,62);fill-rule:nonzero;stroke:rgb(45,54,62);stroke-width:1px;"/>
                <path id="O" d="M103.045,225.605C105.792,225.605 108.177,225.071 110.199,224.003C112.221,222.934 113.881,221.16 115.179,218.68C116.476,216.2 117.43,212.918 118.04,208.836C118.651,204.753 118.956,199.659 118.956,193.554C118.956,187.602 118.632,182.527 117.983,178.33C117.334,174.132 116.342,170.736 115.007,168.142C113.671,165.547 111.993,163.658 109.97,162.476C107.948,161.293 105.601,160.701 102.93,160.701C100.183,160.701 97.817,161.274 95.833,162.418C93.849,163.563 92.189,165.433 90.854,168.027C89.518,170.622 88.526,173.961 87.878,178.043C87.229,182.126 86.905,187.106 86.905,192.982C86.905,198.934 87.229,203.99 87.878,208.149C88.526,212.308 89.518,215.685 90.854,218.279C92.189,220.874 93.868,222.744 95.891,223.888C97.913,225.033 100.298,225.605 103.045,225.605ZM103.045,234.419C94.422,234.419 87.592,230.947 82.555,224.003C77.518,217.058 75,206.985 75,193.783C75,179.818 77.423,169.363 82.269,162.418C87.115,155.474 94.04,152.002 103.045,152.002C111.745,152.002 118.555,155.493 123.478,162.476C128.4,169.458 130.861,179.551 130.861,192.753C130.861,206.947 128.457,217.44 123.649,224.232C118.842,231.023 111.973,234.419 103.045,234.419Z" style="fill:rgb(45,54,62);fill-rule:nonzero;stroke:rgb(45,54,62);stroke-width:1px;"/>
            </g>
        </g>
        <path id="WORKS-WITH" serif:id="WORKS WITH" d="M104.437,41.419L90.549,94.581L83.531,94.581L72.704,57.323L61.952,94.581L54.933,94.581L41.045,41.419L49.557,41.419L58.816,79.424L69.493,41.419L75.989,41.419L86.667,79.424L95.925,41.419L104.437,41.419Z" style="fill:white;fill-rule:nonzero;"/>
        <path d="M148.491,68C148.491,70.539 148.466,72.841 148.416,74.907C148.366,76.972 148.192,78.852 147.893,80.544C147.595,82.236 147.097,83.804 146.4,85.248C145.703,86.692 144.708,88.06 143.413,89.355C141.572,91.196 139.481,92.603 137.141,93.573C134.802,94.544 132.213,95.029 129.376,95.029C126.539,95.029 123.963,94.544 121.648,93.573C119.333,92.603 117.255,91.196 115.413,89.355C114.119,88.06 113.124,86.692 112.427,85.248C111.73,83.804 111.22,82.236 110.896,80.544C110.572,78.852 110.386,76.972 110.336,74.907C110.286,72.841 110.261,70.539 110.261,68C110.261,65.461 110.286,63.159 110.336,61.093C110.386,59.028 110.572,57.148 110.896,55.456C111.22,53.764 111.73,52.196 112.427,50.752C113.124,49.308 114.119,47.94 115.413,46.645C117.255,44.804 119.333,43.397 121.648,42.427C123.963,41.456 126.539,40.971 129.376,40.971C132.213,40.971 134.802,41.456 137.141,42.427C139.481,43.397 141.572,44.804 143.413,46.645C144.708,47.94 145.703,49.308 146.4,50.752C147.097,52.196 147.595,53.764 147.893,55.456C148.192,57.148 148.366,59.028 148.416,61.093C148.466,63.159 148.491,65.461 148.491,68ZM140.427,68C140.427,65.312 140.389,63.084 140.315,61.317C140.24,59.55 140.091,58.057 139.867,56.837C139.643,55.618 139.319,54.597 138.896,53.776C138.473,52.955 137.938,52.196 137.291,51.499C136.345,50.503 135.188,49.707 133.819,49.109C132.45,48.512 130.969,48.213 129.376,48.213C127.783,48.213 126.302,48.512 124.933,49.109C123.564,49.707 122.407,50.503 121.461,51.499C120.814,52.196 120.279,52.955 119.856,53.776C119.433,54.597 119.109,55.618 118.885,56.837C118.661,58.057 118.512,59.55 118.437,61.317C118.363,63.084 118.325,65.312 118.325,68C118.325,70.688 118.363,72.916 118.437,74.683C118.512,76.45 118.661,77.943 118.885,79.163C119.109,80.382 119.433,81.403 119.856,82.224C120.279,83.045 120.814,83.804 121.461,84.501C122.407,85.497 123.564,86.293 124.933,86.891C126.302,87.488 127.783,87.787 129.376,87.787C130.969,87.787 132.45,87.488 133.819,86.891C135.188,86.293 136.345,85.497 137.291,84.501C137.938,83.804 138.473,83.045 138.896,82.224C139.319,81.403 139.643,80.382 139.867,79.163C140.091,77.943 140.24,76.45 140.315,74.683C140.389,72.916 140.427,70.688 140.427,68Z" style="fill:white;fill-rule:nonzero;"/>
        <path d="M189.781,94.581L178.581,72.181L168.501,72.181L168.501,94.581L160.437,94.581L160.437,41.419L181.045,41.419C183.584,41.419 185.861,41.804 187.877,42.576C189.893,43.348 191.623,44.418 193.067,45.787C194.51,47.156 195.618,48.798 196.389,50.715C197.161,52.631 197.547,54.709 197.547,56.949C197.547,60.782 196.526,63.881 194.485,66.245C192.444,68.61 189.931,70.215 186.944,71.061L199.189,94.581L189.781,94.581ZM189.483,57.024C189.483,54.386 188.649,52.332 186.981,50.864C185.314,49.396 183.136,48.661 180.448,48.661L168.501,48.661L168.501,65.312L180.448,65.312C183.136,65.312 185.314,64.59 186.981,63.147C188.649,61.703 189.483,59.662 189.483,57.024Z" style="fill:white;fill-rule:nonzero;"/>
        <path d="M250.784,94.581L241.301,94.581L226.368,68.373L217.408,79.125L217.408,94.581L209.344,94.581L209.344,41.419L217.408,41.419L217.408,68.149L239.136,41.419L248.992,41.419L231.744,62.251L250.784,94.581Z" style="fill:white;fill-rule:nonzero;"/>
        <path d="M291.701,79.424C291.701,81.863 291.228,84.053 290.283,85.995C289.337,87.936 288.018,89.579 286.325,90.923C284.633,92.267 282.617,93.287 280.277,93.984C277.938,94.681 275.374,95.029 272.587,95.029C268.555,95.029 265.045,94.507 262.059,93.461C259.072,92.416 256.309,90.599 253.771,88.011L259.147,82.709C261.088,84.651 263.154,85.982 265.344,86.704C267.534,87.426 269.998,87.787 272.736,87.787C276.22,87.787 278.921,87.077 280.837,85.659C282.754,84.24 283.712,82.236 283.712,79.648C283.712,77.209 283.015,75.367 281.621,74.123C280.924,73.476 280.178,73.003 279.381,72.704C278.585,72.405 277.39,72.132 275.797,71.883L269.525,70.987C265.195,70.389 261.835,68.971 259.445,66.731C256.857,64.292 255.563,60.907 255.563,56.576C255.563,54.236 255.973,52.121 256.795,50.229C257.616,48.338 258.786,46.695 260.304,45.301C261.822,43.908 263.689,42.837 265.904,42.091C268.119,41.344 270.596,40.971 273.333,40.971C276.868,40.971 279.929,41.444 282.517,42.389C285.106,43.335 287.545,44.878 289.835,47.019L284.683,52.096C283.04,50.503 281.26,49.42 279.344,48.848C277.428,48.276 275.349,47.989 273.109,47.989C269.973,47.989 267.572,48.773 265.904,50.341C264.236,51.909 263.403,53.888 263.403,56.277C263.403,57.273 263.564,58.181 263.888,59.003C264.212,59.824 264.722,60.558 265.419,61.205C266.812,62.45 268.804,63.271 271.392,63.669L277.44,64.565C279.929,64.964 281.92,65.474 283.413,66.096C284.907,66.718 286.226,67.527 287.371,68.523C288.814,69.817 289.897,71.385 290.619,73.227C291.34,75.068 291.701,77.134 291.701,79.424Z" style="fill:white;fill-rule:nonzero;"/>
        <path d="M377.717,41.419L363.829,94.581L356.811,94.581L345.984,57.323L335.232,94.581L328.213,94.581L314.325,41.419L322.837,41.419L332.096,79.424L342.773,41.419L349.269,41.419L359.947,79.424L369.205,41.419L377.717,41.419Z" style="fill:white;fill-rule:nonzero;"/>
        <rect x="385.483" y="41.419" width="8.064" height="53.163" style="fill:white;fill-rule:nonzero;"/>
        <path d="M440.064,48.661L425.429,48.661L425.429,94.581L417.365,94.581L417.365,48.661L402.731,48.661L402.731,41.419L440.064,41.419L440.064,48.661Z" style="fill:white;fill-rule:nonzero;"/>
        <path d="M486.955,94.581L478.891,94.581L478.891,71.36L457.312,71.36L457.312,94.581L449.248,94.581L449.248,41.419L457.312,41.419L457.312,64.117L478.891,64.117L478.891,41.419L486.955,41.419L486.955,94.581Z" style="fill:white;fill-rule:nonzero;"/>
    </g>
</svg>
